<svg xmlns="http://www.w3.org/2000/svg" width="680" height="419" fill="none"><path fill="#fff" fill-opacity=".1" fill-rule="evenodd" d="M173.394 184C159.369 184 148 195.416 148 209.5s11.369 25.5 25.394 25.5c14.025 0 25.394-11.416 25.394-25.5S187.419 184 173.394 184zm0 2.55a22.998 22.998 0 0 1-6.694 16.228 22.806 22.806 0 0 1-16.161 6.722 22.806 22.806 0 0 1 16.161 6.722 22.998 22.998 0 0 1 6.694 16.228 22.998 22.998 0 0 1 6.694-16.228 22.806 22.806 0 0 1 16.16-6.722 22.806 22.806 0 0 1-16.16-6.722 22.998 22.998 0 0 1-6.694-16.228z" clip-rule="evenodd"/><path fill="#fff" fill-opacity=".1" d="M240.921 231.976c-3.169 0-6.115-.551-8.837-1.653a23.36 23.36 0 0 1-7.131-4.712 22.394 22.394 0 0 1-4.753-7.038c-1.097-2.693-1.646-5.59-1.646-8.691 0-3.1.549-5.977 1.646-8.629 1.137-2.693 2.722-5.039 4.753-7.038a21.799 21.799 0 0 1 7.192-4.712c2.722-1.143 5.647-1.714 8.776-1.714 2.235 0 4.408.306 6.521.918 2.153.571 4.124 1.408 5.912 2.509a19.619 19.619 0 0 1 4.753 3.978l-4.266 4.407a15.199 15.199 0 0 0-5.789-4.345 17.249 17.249 0 0 0-7.131-1.53c-2.275 0-4.388.408-6.338 1.224a15.181 15.181 0 0 0-4.998 3.427c-1.422 1.428-2.539 3.121-3.352 5.08-.772 1.958-1.158 4.1-1.158 6.425 0 2.285.386 4.407 1.158 6.365a15.773 15.773 0 0 0 3.413 5.141 15.694 15.694 0 0 0 5.12 3.427c1.95.816 4.063 1.224 6.338 1.224 2.478 0 4.814-.489 7.008-1.469 2.235-1.02 4.124-2.447 5.668-4.283l4.206 4.283a24.502 24.502 0 0 1-4.876 3.979 23.64 23.64 0 0 1-5.851 2.57 23.75 23.75 0 0 1-6.338.857zm22.716-.673v-42.841h19.319c2.845 0 5.323.531 7.436 1.592 2.153 1.06 3.819 2.55 4.997 4.467 1.219 1.877 1.829 4.08 1.829 6.61 0 2.815-.793 5.243-2.377 7.283-1.585 2.04-3.718 3.509-6.4 4.406l9.508 18.483h-7.07l-8.837-17.565h-12.006v17.565h-6.399zm6.399-22.951h12.433c2.519 0 4.53-.632 6.033-1.897 1.544-1.305 2.316-3.06 2.316-5.263 0-2.122-.772-3.835-2.316-5.141-1.503-1.305-3.514-1.958-6.033-1.958h-12.433v14.259zm43.761 22.951v-17.014l-17.186-25.827h7.435l13.103 20.135 13.104-20.135h7.13l-17.186 25.949v16.892h-6.4zm27.183 0v-42.841h19.746c2.804 0 5.241.551 7.314 1.653 2.072 1.061 3.697 2.55 4.875 4.467 1.178 1.918 1.768 4.142 1.768 6.671 0 2.53-.59 4.754-1.768 6.671-1.178 1.918-2.824 3.427-4.936 4.529-2.072 1.061-4.49 1.591-7.253 1.591h-13.347v17.259h-6.399zm6.399-22.706h12.677c2.519 0 4.51-.653 5.972-1.958 1.504-1.347 2.255-3.121 2.255-5.324 0-2.204-.751-3.958-2.255-5.264-1.462-1.305-3.453-1.958-5.972-1.958h-12.677v14.504zm44.391 22.706v-37.149h-14.993v-5.692h36.384v5.692h-14.992v37.149h-6.399zm43.506.673c-3.698 0-6.907-.776-9.629-2.326-2.723-1.55-4.815-3.733-6.278-6.548-1.463-2.856-2.194-6.222-2.194-10.098v-24.542h6.399v24.542c0 2.652.468 4.957 1.402 6.915.975 1.959 2.336 3.468 4.083 4.529 1.788 1.061 3.86 1.591 6.217 1.591 2.438 0 4.53-.53 6.277-1.591 1.747-1.061 3.088-2.57 4.023-4.529.975-1.958 1.462-4.263 1.462-6.915v-24.542h6.399v24.542c0 3.876-.751 7.242-2.255 10.098-1.462 2.815-3.555 4.998-6.277 6.548-2.722 1.55-5.932 2.326-9.629 2.326zm25.468-.673v-42.841h19.32c2.844 0 5.322.531 7.435 1.592 2.154 1.06 3.819 2.55 4.998 4.467 1.219 1.877 1.828 4.08 1.828 6.61 0 2.815-.792 5.243-2.377 7.283-1.584 2.04-3.718 3.509-6.399 4.406l9.507 18.483h-7.069l-8.837-17.565h-12.007v17.565h-6.399zm6.399-22.951h12.433c2.519 0 4.53-.632 6.034-1.897 1.544-1.305 2.316-3.06 2.316-5.263 0-2.122-.772-3.835-2.316-5.141-1.504-1.305-3.515-1.958-6.034-1.958h-12.433v14.259zm33.166 22.951v-42.841h31.447v5.631h-25.048v12.852h16.455v5.447h-16.455v13.28H532v5.631h-31.691z"/></svg>