<svg xmlns="http://www.w3.org/2000/svg" width="680" height="419" fill="none"><g clip-path="url(#a)"><path fill="#fff" fill-opacity=".25" d="M264.89 376v-7.284h-2.952V367.6h7.164v1.116h-2.952V376h-1.26zm3.275 0 3.468-8.4h1.488l3.432 8.4h-1.368l-.972-2.46h-3.756l-.984 2.46h-1.308zm2.7-3.504h2.94l-1.464-3.696-1.476 3.696zm6.914 3.504v-8.4h3.888c.552 0 1.032.108 1.44.324.408.208.728.5.96.876.232.376.348.812.348 1.308s-.116.932-.348 1.308a2.43 2.43 0 0 1-.972.888c-.408.208-.884.312-1.428.312h-2.628V376h-1.26zm1.26-4.452h2.496c.496 0 .888-.128 1.176-.384.296-.264.444-.612.444-1.044 0-.432-.148-.776-.444-1.032-.288-.256-.68-.384-1.176-.384h-2.496v2.844zM291.244 376v-7.284h-2.952V367.6h7.164v1.116h-2.952V376h-1.26zm5.626 0v-8.4h1.26v3.6h4.464v-3.6h1.26v8.4h-1.26v-3.66h-4.464V376h-1.26zm9.056 0v-8.4h6.192v1.104h-4.932v2.52h3.24v1.068h-3.24v2.604h4.98V376h-6.24zm14.807.132a4.612 4.612 0 0 1-1.74-.324 4.603 4.603 0 0 1-1.404-.924c-.4-.4-.712-.86-.936-1.38a4.457 4.457 0 0 1-.324-1.704c0-.608.108-1.172.324-1.692.224-.528.536-.988.936-1.38.408-.4.88-.708 1.416-.924a4.436 4.436 0 0 1 1.728-.336c.44 0 .868.06 1.284.18.424.112.812.276 1.164.492.36.216.672.476.936.78l-.84.864a2.994 2.994 0 0 0-1.14-.852c-.448-.2-.916-.3-1.404-.3-.448 0-.864.08-1.248.24a2.99 2.99 0 0 0-.984.672c-.28.28-.5.612-.66.996a3.394 3.394 0 0 0-.228 1.26c0 .448.076.864.228 1.248a3.092 3.092 0 0 0 1.68 1.68c.384.16.8.24 1.248.24a3.36 3.36 0 0 0 1.38-.288c.44-.2.812-.48 1.116-.84l.828.84a4.66 4.66 0 0 1-2.112 1.284 4.693 4.693 0 0 1-1.248.168zm4.112-.132 3.468-8.4h1.488l3.432 8.4h-1.368l-.972-2.46h-3.756l-.984 2.46h-1.308zm2.7-3.504h2.94l-1.464-3.696-1.476 3.696zm6.914 3.504v-8.4h3.804c.56 0 1.048.104 1.464.312.424.208.752.5.984.876.24.368.36.8.36 1.296 0 .552-.156 1.028-.468 1.428-.312.4-.732.688-1.26.864l1.872 3.624h-1.392l-1.74-3.444h-2.364V376h-1.26zm1.26-4.5h2.448c.496 0 .892-.124 1.188-.372.304-.256.456-.6.456-1.032 0-.416-.152-.752-.456-1.008-.296-.256-.692-.384-1.188-.384h-2.448v2.796zm8.271 3.372h1.728c.44 0 .848-.076 1.224-.228.376-.16.704-.376.984-.648.288-.28.508-.604.66-.972.16-.376.24-.784.24-1.224 0-.432-.08-.836-.24-1.212a2.724 2.724 0 0 0-.66-.972 2.927 2.927 0 0 0-.984-.648 3.093 3.093 0 0 0-1.224-.24h-1.728v6.144zM342.73 376v-8.4h2.964c.632 0 1.216.108 1.752.324.536.208 1.004.5 1.404.876.4.376.712.82.936 1.332.224.512.336 1.068.336 1.668 0 .608-.112 1.168-.336 1.68a3.903 3.903 0 0 1-.924 1.32 4.43 4.43 0 0 1-1.416.888 4.802 4.802 0 0 1-1.752.312h-2.964zm14.25 0v-7.284h-2.952V367.6h7.164v1.116h-2.952V376h-1.26zm9.06.132a4.457 4.457 0 0 1-1.704-.324 4.603 4.603 0 0 1-1.404-.924c-.4-.4-.712-.86-.936-1.38a4.457 4.457 0 0 1-.324-1.704c0-.608.108-1.172.324-1.692.224-.528.536-.988.936-1.38.408-.4.876-.708 1.404-.924a4.317 4.317 0 0 1 1.704-.336c.608 0 1.176.112 1.704.336a4.164 4.164 0 0 1 1.404.924c.4.392.712.852.936 1.38.224.52.336 1.084.336 1.692 0 .608-.112 1.176-.336 1.704a4.39 4.39 0 0 1-.936 1.38c-.4.392-.868.7-1.404.924a4.457 4.457 0 0 1-1.704.324zm.012-1.164a3.084 3.084 0 0 0 2.184-.9 3.191 3.191 0 0 0 .9-2.268c0-.456-.08-.876-.24-1.26a3.05 3.05 0 0 0-.66-.996 2.99 2.99 0 0 0-.984-.672 2.977 2.977 0 0 0-1.2-.24c-.44 0-.848.08-1.224.24a2.99 2.99 0 0 0-.984.672c-.28.28-.5.612-.66.996a3.394 3.394 0 0 0-.228 1.26c0 .448.076.868.228 1.26.16.384.38.72.66 1.008a3.084 3.084 0 0 0 2.208.9zm8.923 1.032v-8.4h3.888c.552 0 1.032.108 1.44.324.408.208.728.5.96.876.232.376.348.812.348 1.308s-.116.932-.348 1.308a2.43 2.43 0 0 1-.972.888c-.408.208-.884.312-1.428.312h-2.628V376h-1.26zm1.26-4.452h2.496c.496 0 .888-.128 1.176-.384.296-.264.444-.612.444-1.044 0-.432-.148-.776-.444-1.032-.288-.256-.68-.384-1.176-.384h-2.496v2.844zm7.033 4.452v-8.4h1.26v3.6h4.464v-3.6h1.26v8.4h-1.26v-3.66h-4.464V376h-1.26zm13.064.132a4.457 4.457 0 0 1-1.704-.324 4.603 4.603 0 0 1-1.404-.924c-.4-.4-.712-.86-.936-1.38a4.457 4.457 0 0 1-.324-1.704c0-.608.108-1.172.324-1.692.224-.528.536-.988.936-1.38.408-.4.876-.708 1.404-.924a4.317 4.317 0 0 1 1.704-.336c.608 0 1.176.112 1.704.336a4.164 4.164 0 0 1 1.404.924c.4.392.712.852.936 1.38.224.52.336 1.084.336 1.692 0 .608-.112 1.176-.336 1.704a4.39 4.39 0 0 1-.936 1.38c-.4.392-.868.7-1.404.924a4.457 4.457 0 0 1-1.704.324zm.012-1.164a3.084 3.084 0 0 0 2.184-.9 3.191 3.191 0 0 0 .9-2.268c0-.456-.08-.876-.24-1.26a3.05 3.05 0 0 0-.66-.996 2.99 2.99 0 0 0-.984-.672 2.977 2.977 0 0 0-1.2-.24c-.44 0-.848.08-1.224.24a2.99 2.99 0 0 0-.984.672c-.28.28-.5.612-.66.996a3.394 3.394 0 0 0-.228 1.26c0 .448.076.868.228 1.26.16.384.38.72.66 1.008a3.084 3.084 0 0 0 2.208.9zm6.055 1.032v-8.4h1.224l4.692 6.24v-6.24h1.188v8.4h-1.104l-4.8-6.432V376h-1.2zm9.184 0v-8.4h6.192v1.104h-4.932v2.52h3.24v1.068h-3.24v2.604h4.98V376h-6.24z"/><path fill="#fff" fill-opacity=".1" fill-rule="evenodd" d="M340 182c-15.464 0-28 12.536-28 28s12.536 28 28 28 28-12.536 28-28-12.536-28-28-28zm0 2.8a25.2 25.2 0 0 1-25.2 25.2 25.2 25.2 0 0 1 25.2 25.2 25.2 25.2 0 0 1 25.2-25.2 25.2 25.2 0 0 1-25.2-25.2z" clip-rule="evenodd"/><rect width="255" height="255" x="212.5" y="83" stroke="#fff" stroke-opacity=".1" rx="127.5"/><rect width="319" height="319" x="180.5" y="51" stroke="#fff" stroke-opacity=".05" rx="159.5"/><rect width="383" height="383" x="148.5" y="19" stroke="#fff" stroke-opacity=".05" rx="191.5"/><rect width="447" height="447" x="116.5" y="-13" stroke="#fff" stroke-opacity=".02" rx="223.5"/><rect width="511" height="511" x="84.5" y="-45" stroke="#fff" stroke-opacity=".02" rx="255.5"/><rect width="191" height="191" x="244.5" y="115" stroke="#fff" stroke-opacity=".1" rx="95.5"/><rect width="128" height="128" x="276" y="146.5" fill="#fff" fill-opacity=".02" rx="64"/><rect width="127" height="127" x="276.5" y="147" stroke="#fff" stroke-opacity=".1" rx="63.5"/></g><defs><clipPath id="a"><rect width="680" height="419" fill="#fff" rx="32"/></clipPath></defs></svg>